<svg width="300" height="300" viewBox="0 0 300 300" fill="none" xmlns="http://www.w3.org/2000/svg">
<path d="M187.192 37.7359L199.19 16.091C199.344 15.8133 199.441 15.508 199.477 15.1925C199.513 14.8771 199.487 14.5576 199.399 14.2524C199.312 13.9472 199.165 13.6622 198.967 13.4137C198.77 13.1652 198.525 12.9581 198.247 12.8042C197.687 12.4933 197.025 12.4179 196.409 12.5946C195.792 12.7713 195.271 13.1857 194.961 13.7465L182.83 35.6312C172.48 31.0939 161.301 28.7512 150 28.7512C138.699 28.7512 127.521 31.0939 117.171 35.6312L105.04 13.7465C104.729 13.1857 104.208 12.7713 103.591 12.5946C102.975 12.4179 102.314 12.4933 101.753 12.8042C101.192 13.1151 100.778 13.636 100.601 14.2524C100.424 14.8688 100.499 15.5302 100.81 16.091L112.809 37.736C101.388 43.3656 91.7378 52.0319 84.9174 62.7841C78.097 73.5364 74.3696 85.9594 74.144 98.6904H225.857C225.631 85.9593 221.904 73.5364 215.083 62.784C208.263 52.0317 198.613 43.3655 187.192 37.7359ZM74.1429 214.643C74.1429 219.507 76.075 224.172 79.5143 227.611C82.9535 231.05 87.6182 232.982 92.482 232.982H104.652V270.494C104.646 272.731 105.081 274.948 105.933 277.016C106.785 279.085 108.037 280.965 109.617 282.549C111.196 284.133 113.073 285.39 115.139 286.247C117.205 287.105 119.421 287.546 121.658 287.546C123.895 287.546 126.11 287.105 128.176 286.247C130.242 285.39 132.119 284.133 133.699 282.549C135.279 280.965 136.53 279.085 137.382 277.016C138.234 274.948 138.669 272.731 138.663 270.494V232.982H161.337V270.494C161.331 272.731 161.766 274.948 162.618 277.016C163.47 279.085 164.721 280.965 166.301 282.549C167.881 284.133 169.758 285.39 171.824 286.247C173.89 287.105 176.105 287.546 178.342 287.546C180.579 287.546 182.795 287.105 184.861 286.247C186.927 285.39 188.804 284.133 190.384 282.549C191.963 280.965 193.215 279.085 194.067 277.016C194.919 274.948 195.354 272.731 195.348 270.494V232.982H207.519C212.382 232.982 217.047 231.05 220.486 227.611C223.925 224.172 225.858 219.507 225.858 214.643V104.692H74.1429V214.643ZM50.8019 101.774C46.2933 101.779 41.9708 103.572 38.7827 106.761C35.5946 109.949 33.8013 114.271 33.7963 118.78V189.635C33.7902 191.873 34.2256 194.089 35.0775 196.157C35.9294 198.226 37.181 200.106 38.7608 201.69C40.3405 203.274 42.2172 204.531 44.2835 205.388C46.3497 206.246 48.5648 206.687 50.8019 206.687C53.0391 206.687 55.2542 206.246 57.3204 205.388C59.3866 204.531 61.2634 203.274 62.8431 201.69C64.4228 200.106 65.6745 198.226 66.5264 196.157C67.3783 194.089 67.8137 191.873 67.8076 189.635V118.78C67.8025 114.271 66.0092 109.949 62.8211 106.76C59.633 103.572 55.3105 101.779 50.8019 101.774ZM249.198 101.774C244.69 101.779 240.367 103.572 237.179 106.76C233.991 109.949 232.197 114.271 232.192 118.78V189.635C232.186 191.873 232.622 194.089 233.474 196.157C234.326 198.226 235.577 200.106 237.157 201.69C238.737 203.274 240.613 204.531 242.68 205.388C244.746 206.246 246.961 206.687 249.198 206.687C251.435 206.687 253.65 206.246 255.717 205.388C257.783 204.531 259.66 203.274 261.239 201.69C262.819 200.106 264.071 198.226 264.923 196.157C265.774 194.089 266.21 191.873 266.204 189.635V118.78C266.199 114.271 264.405 109.949 261.217 106.761C258.029 103.572 253.707 101.779 249.198 101.774Z" fill="#1EE3CF"/>
<path d="M114.987 70.9375C118.488 70.9375 121.325 68.1001 121.325 64.6C121.325 61.0999 118.488 58.2625 114.987 58.2625C111.487 58.2625 108.65 61.0999 108.65 64.6C108.65 68.1001 111.487 70.9375 114.987 70.9375Z" fill="#1F8EA3"/>
<path d="M185.013 70.9375C188.513 70.9375 191.35 68.1001 191.35 64.6C191.35 61.0999 188.513 58.2625 185.013 58.2625C181.512 58.2625 178.675 61.0999 178.675 64.6C178.675 68.1001 181.512 70.9375 185.013 70.9375Z" fill="#1F8EA3"/>
</svg>
