<svg width="24" height="24" viewBox="0 0 24 24" fill="none" xmlns="http://www.w3.org/2000/svg">
<path d="M13.5194 12.4685L8.41897 7.42857C8.15062 7.16182 8 6.80098 8 6.42485C8 6.04873 8.15062 5.68788 8.41897 5.42113C8.55291 5.28769 8.71226 5.18177 8.88783 5.10949C9.06341 5.03721 9.25173 5 9.44193 5C9.63213 5 9.82045 5.03721 9.99602 5.10949C10.1716 5.18177 10.3309 5.28769 10.4649 5.42113L16.5738 11.4577C16.7089 11.59 16.816 11.7475 16.8892 11.921C16.9623 12.0945 17 12.2806 17 12.4685C17 12.6565 16.9623 12.8426 16.8892 13.016C16.816 13.1895 16.7089 13.347 16.5738 13.4794L10.4649 19.5871C10.3303 19.719 10.1706 19.8234 9.99505 19.8943C9.81951 19.9651 9.63154 20.0011 9.44193 20C9.25231 20.0011 9.06434 19.9651 8.8888 19.8943C8.71326 19.8234 8.5536 19.719 8.41897 19.5871C8.15062 19.3203 8 18.9595 8 18.5834C8 18.2073 8.15062 17.8464 8.41897 17.5797L13.5194 12.4685Z" fill="#2EA1D9"/>
</svg>
