<svg width="160" height="160" viewBox="0 0 160 160" fill="none" xmlns="http://www.w3.org/2000/svg">
<path d="M116.507 40.82L112.947 80.78L112.96 81L112.947 81.4934V81.4867L110.413 109.433L110.14 111.913L80 120.247V120.253L79.9733 120.273L49.8933 111.887L47.8533 88.7867H62.6067L63.6533 100.533L80.0067 104.967L80 104.973L96.4067 100.473L98.1467 81.3467H63.84L63.5467 78.1134L62.8733 70.54L62.5267 66.4667H99.4467L100.793 51.5934H44.5467L44.2533 48.36L43.5867 40.78L43.2333 36.7134H116.86L116.507 40.82Z" fill="white"/>
<path d="M21.3001 13.3333L31.98 133.293L79.9267 146.667L128.007 133.247L138.7 13.3333H21.3001ZM116.507 40.8199L112.947 80.78L112.96 81.0001L112.947 81.4933V81.4867L110.413 109.433L110.14 111.913L80 120.247V120.253L79.9731 120.273L49.8934 111.887L47.8532 88.7865H62.6066L63.6531 100.533L80.0065 104.967L80 104.973L96.4067 100.473L98.1466 81.3467H63.8399L63.5465 78.1131L62.8735 70.5398L62.5269 66.4663H99.4466L100.793 51.5933H44.5467L44.2533 48.3601L43.5868 40.7799L43.2333 36.7134H116.86L116.507 40.8199Z" fill="#2965F1"/>
</svg>
