<svg width="102" height="102" viewBox="0 0 102 102" fill="none" xmlns="http://www.w3.org/2000/svg">
<path d="M102 51C102 22.8335 79.1665 0 51 0C22.8335 0 0 22.8335 0 51C0 76.4556 18.65 97.5544 43.0312 101.38V65.7422H30.082V51H43.0312V39.7641C43.0312 26.9822 50.6452 19.9219 62.2946 19.9219C67.8746 19.9219 73.7109 20.918 73.7109 20.918V33.4687H67.2799C60.9445 33.4687 58.9688 37.4 58.9688 41.4332V51H73.1133L70.8521 65.7422H58.9688V101.38C83.35 97.5544 102 76.4556 102 51Z" fill="#1877F2"/>
<path d="M70.8521 65.7422L73.1133 51H58.9688V41.4332C58.9688 37.4 60.9445 33.4688 67.2799 33.4688H73.7109V20.918C73.7109 20.918 67.8746 19.9219 62.2946 19.9219C50.6452 19.9219 43.0312 26.9822 43.0312 39.7641V51H30.082V65.7422H43.0312V101.38C48.3116 102.207 53.6884 102.207 58.9688 101.38V65.7422H70.8521Z" fill="white"/>
</svg>
