<svg width="102" height="102" viewBox="0 0 102 102" fill="none" xmlns="http://www.w3.org/2000/svg">
<g clip-path="url(#clip0_275_7)">
<path d="M25.865 101.639C21.9197 101.595 18.0115 100.871 14.312 99.5C11.6104 98.5014 9.16621 96.9116 7.158 94.847C5.08777 92.8428 3.49568 90.3979 2.5 87.694C1.12975 83.9946 0.407182 80.0868 0.364 76.142C0.061 69.584 0 67.617 0 51C0 34.383 0.067 32.423 0.361 25.86C0.409423 21.9168 1.13288 18.011 2.5 14.312C3.50053 11.61 5.09036 9.16479 7.154 7.154C9.15973 5.08563 11.6051 3.49502 14.309 2.5C18.0085 1.12862 21.9167 0.405028 25.862 0.361C32.422 0.061 34.392 0 51 0C67.608 0 69.577 0.067 76.14 0.361C80.0842 0.40908 83.9911 1.13255 87.691 2.5C90.3937 3.49634 92.8384 5.08639 94.845 7.153C96.9122 9.16024 98.5029 11.6056 99.5 14.309C100.872 18.0085 101.596 21.9167 101.64 25.862C101.94 32.425 102.001 34.39 102.001 51.002C102.001 67.614 101.94 69.579 101.64 76.142C101.592 80.0867 100.869 83.994 99.5 87.694C98.4648 90.3772 96.8792 92.8139 94.8454 94.8472C92.8115 96.8805 90.3744 98.4655 87.691 99.5C83.9915 100.872 80.0833 101.596 76.138 101.64C69.581 101.94 67.61 102.001 50.998 102.001C34.386 102.001 32.421 101.943 25.864 101.64" fill="#2ea1d9"/>
<path d="M25.865 101.639C21.9197 101.595 18.0115 100.871 14.312 99.5C11.6104 98.5014 9.16621 96.9116 7.158 94.847C5.08777 92.8428 3.49568 90.3979 2.5 87.694C1.12975 83.9946 0.407182 80.0868 0.364 76.142C0.061 69.584 0 67.617 0 51C0 34.383 0.067 32.423 0.361 25.86C0.409423 21.9168 1.13288 18.011 2.5 14.312C3.50053 11.61 5.09036 9.16479 7.154 7.154C9.15973 5.08563 11.6051 3.49502 14.309 2.5C18.0085 1.12862 21.9167 0.405028 25.862 0.361C32.422 0.061 34.392 0 51 0C67.608 0 69.577 0.067 76.14 0.361C80.0842 0.40908 83.9911 1.13255 87.691 2.5C90.3937 3.49634 92.8384 5.08639 94.845 7.153C96.9122 9.16024 98.5029 11.6056 99.5 14.309C100.872 18.0085 101.596 21.9167 101.64 25.862C101.94 32.425 102.001 34.39 102.001 51.002C102.001 67.614 101.94 69.579 101.64 76.142C101.592 80.0867 100.869 83.994 99.5 87.694C98.4648 90.3772 96.8792 92.8139 94.8454 94.8472C92.8115 96.8805 90.3744 98.4655 87.691 99.5C83.9915 100.872 80.0833 101.596 76.138 101.64C69.581 101.94 67.61 102.001 50.998 102.001C34.386 102.001 32.421 101.943 25.864 101.64" fill="#2ea1d9"/>
<path d="M38.477 51.217C38.4772 48.7188 39.2182 46.2767 40.6063 44.1996C41.9945 42.1226 43.9673 40.5038 46.2755 39.548C48.5836 38.5922 51.1234 38.3423 53.5735 38.83C56.0237 39.3176 58.2742 40.5209 60.0405 42.2876C61.8068 44.0543 63.0095 46.3051 63.4966 48.7554C63.9837 51.2057 63.7332 53.7454 62.7768 56.0533C61.8205 58.3612 60.2012 60.3337 58.1238 61.7213C56.0464 63.1089 53.6042 63.8494 51.106 63.849C47.7562 63.8485 44.5438 62.5173 42.1755 60.1484C39.8071 57.7794 38.4767 54.5668 38.477 51.217V51.217ZM31.648 51.217C31.648 55.0654 32.7892 58.8274 34.9273 62.0273C37.0653 65.2271 40.1043 67.7211 43.6598 69.1938C47.2152 70.6666 51.1276 71.0519 54.9021 70.3011C58.6765 69.5503 62.1436 67.6971 64.8649 64.9759C67.5861 62.2546 69.4393 58.7875 70.1901 55.0131C70.9409 51.2386 70.5556 47.3262 69.0828 43.7707C67.6101 40.2152 65.1161 37.1763 61.9163 35.0382C58.7164 32.9002 54.9544 31.759 51.106 31.759C48.5507 31.7588 46.0204 32.2621 43.6596 33.2399C41.2988 34.2177 39.1537 35.6509 37.3468 37.4578C35.54 39.2647 34.1067 41.4098 33.1289 43.7706C32.1511 46.1314 31.6479 48.6617 31.648 51.217V51.217ZM66.787 30.988C66.7866 31.8873 67.0529 32.7665 67.5522 33.5145C68.0515 34.2625 68.7614 34.8456 69.5921 35.1901C70.4228 35.5346 71.337 35.6251 72.2191 35.45C73.1012 35.275 73.9116 34.8422 74.5478 34.2066C75.184 33.571 75.6174 32.761 75.7932 31.879C75.9691 30.9971 75.8794 30.0828 75.5356 29.2518C75.1919 28.4208 74.6094 27.7104 73.8618 27.2104C73.1143 26.7105 72.2353 26.4434 71.336 26.443V26.443C70.1306 26.4435 68.9746 26.9225 68.1221 27.7747C67.2695 28.6268 66.7901 29.7825 66.789 30.988H66.787ZM35.799 82.062C33.3961 82.0356 31.0157 81.5958 28.762 80.762C27.1276 80.132 25.6432 79.1668 24.4043 77.9285C23.1655 76.6901 22.1996 75.2061 21.569 73.572C20.7348 71.3184 20.295 68.9379 20.269 66.535C20.085 62.541 20.049 61.341 20.049 51.222C20.049 41.103 20.089 39.906 20.269 35.908C20.2982 33.5054 20.7378 31.1254 21.569 28.871C22.1989 27.236 23.1645 25.7513 24.4034 24.5124C25.6423 23.2734 27.1271 22.3079 28.762 21.678C31.0156 20.8438 33.3961 20.404 35.799 20.378C39.793 20.194 40.993 20.158 51.108 20.158C61.223 20.158 62.424 20.197 66.422 20.379C68.8246 20.4081 71.2046 20.8478 73.459 21.679C75.0939 22.309 76.5787 23.2745 77.8176 24.5134C79.0565 25.7523 80.022 27.2371 80.652 28.872C81.4862 31.1256 81.9259 33.5061 81.952 35.909C82.136 39.909 82.172 41.103 82.172 51.223C82.172 61.343 82.135 62.539 81.952 66.537C81.924 68.9397 81.4843 71.3198 80.652 73.574C80.0213 75.2081 79.0555 76.6922 77.8167 77.9305C76.5778 79.1688 75.0934 80.134 73.459 80.764C71.2054 81.5982 68.8249 82.0379 66.422 82.064C62.428 82.248 61.228 82.284 51.108 82.284C40.988 82.284 39.792 82.247 35.799 82.064V82.062ZM35.485 13.555C32.3408 13.6168 29.23 14.2119 26.285 15.315C23.7675 16.2883 21.4812 17.777 19.5726 19.6856C17.6641 21.5942 16.1754 23.8805 15.202 26.398C14.0991 29.343 13.504 32.4538 13.442 35.598C13.255 39.638 13.213 40.93 13.213 51.221C13.213 61.512 13.256 62.803 13.442 66.844C13.504 69.9881 14.0991 73.099 15.202 76.044C16.1754 78.5614 17.6641 80.8477 19.5727 82.7563C21.4812 84.6648 23.7675 86.1536 26.285 87.127C29.2301 88.2295 32.3409 88.8247 35.485 88.887C39.527 89.071 40.817 89.116 51.108 89.116C61.399 89.116 62.69 89.073 66.731 88.887C69.8751 88.8249 72.9859 88.2298 75.931 87.127C78.4485 86.1536 80.7347 84.6648 82.6433 82.7563C84.5519 80.8477 86.0406 78.5614 87.014 76.044C88.1184 73.0994 88.7135 69.9883 88.774 66.844C88.958 62.801 89 61.512 89 51.221C89 40.93 88.957 39.639 88.774 35.598C88.7122 32.4538 88.1171 29.343 87.014 26.398C86.0406 23.881 84.5523 21.595 82.6443 19.6865C80.7363 17.778 78.4508 16.289 75.934 15.315C72.9892 14.2112 69.8782 13.6161 66.734 13.555C62.693 13.37 61.402 13.326 51.113 13.326C40.824 13.326 39.53 13.369 35.487 13.555" fill="white"/>
</g>
<defs>
<radialGradient id="paint0_radial_275_7" cx="0" cy="0" r="1" gradientUnits="userSpaceOnUse" gradientTransform="translate(6.601 99.766) scale(129.502)">
<stop offset="0.09" stop-color="#FA8F21"/>
<stop offset="0.78" stop-color="#D82D7E"/>
</radialGradient>
<radialGradient id="paint1_radial_275_7" cx="0" cy="0" r="1" gradientUnits="userSpaceOnUse" gradientTransform="translate(70.652 96.49) scale(113.963)">
<stop offset="0.64" stop-color="#8C3AAA" stop-opacity="0"/>
<stop offset="1" stop-color="#8C3AAA"/>
</radialGradient>
<clipPath id="clip0_275_7">
<rect width="102" height="102" fill="white"/>
</clipPath>
</defs>
</svg>
