<svg width="70" height="70" viewBox="0 0 70 70" fill="none" xmlns="http://www.w3.org/2000/svg">
<path d="M35.0011 20.0232C32.039 20.0232 29.1434 20.9016 26.6805 22.5472C24.2176 24.1929 22.298 26.532 21.1644 29.2686C20.0308 32.0052 19.7343 35.0166 20.3121 37.9218C20.89 40.827 22.3164 43.4956 24.411 45.5901C26.5055 47.6847 29.1741 49.1111 32.0793 49.6889C34.9845 50.2668 37.9958 49.9702 40.7325 48.8367C43.4691 47.7031 45.8082 45.7835 47.4538 43.3206C49.0995 40.8577 49.9779 37.9621 49.9779 35C49.9779 33.0332 49.5906 31.0856 48.8379 29.2686C48.0853 27.4515 46.9821 25.8004 45.5914 24.4097C44.2006 23.019 42.5496 21.9158 40.7325 21.1632C38.9154 20.4105 36.9679 20.0232 35.0011 20.0232ZM35.0011 44.7229C33.0781 44.7229 31.1982 44.1526 29.5993 43.0842C28.0004 42.0158 26.7542 40.4973 26.0183 38.7207C25.2823 36.944 25.0898 34.989 25.465 33.103C25.8402 31.2169 26.7662 29.4844 28.126 28.1246C29.4858 26.7648 31.2183 25.8388 33.1044 25.4637C34.9904 25.0885 36.9454 25.2811 38.722 26.017C40.4987 26.7529 42.0172 27.9992 43.0856 29.5981C44.1539 31.1971 44.7242 33.0769 44.7241 35C44.7243 36.2768 44.4729 37.5412 43.9843 38.721C43.4958 39.9007 42.7796 40.9726 41.8767 41.8755C40.9738 42.7784 39.9019 43.4945 38.7221 43.9831C37.5424 44.4717 36.278 44.723 35.0011 44.7229Z" fill="#95EFCE"/>
<path d="M63.9912 22.9751C63.9434 20.5556 63.4854 18.1617 62.6365 15.8955C61.9029 13.9498 60.7549 12.1868 59.2723 10.7288C57.8164 9.24462 56.0539 8.09642 54.1079 7.3645C51.8419 6.51512 49.4479 6.05704 47.0283 6.00983C43.9184 5.86825 42.9243 5.83325 35.0036 5.83325C27.0828 5.83325 26.0879 5.86609 22.9762 6.00983C20.5568 6.05764 18.163 6.5157 15.8968 7.3645C13.9505 8.09709 12.1873 9.24518 10.73 10.7288C9.24503 12.1849 8.09679 13.9484 7.36593 15.8955C6.51713 18.1618 6.05907 20.5556 6.01125 22.9751C5.86749 26.0849 5.83447 27.0792 5.83447 34.9999C5.83447 42.9207 5.86749 43.9148 6.01119 47.0246C6.05902 49.4442 6.5171 51.838 7.36593 54.1043C8.09701 56.0513 9.24521 57.8148 10.73 59.2711C12.188 60.7537 13.951 61.9016 15.8968 62.6351C18.163 63.4837 20.5568 63.9417 22.9762 63.9899C26.0879 64.1313 27.0804 64.1666 35.0011 64.1666C42.9219 64.1666 43.9162 64.1336 47.026 63.9899C49.4455 63.942 51.8393 63.484 54.1055 62.6351C56.0433 61.886 57.8032 60.7401 59.2723 59.271C60.7414 57.8019 61.8873 56.0421 62.6365 54.1043C63.4863 51.8383 63.9444 49.4443 63.9912 47.0246C64.1327 43.9126 64.1655 42.9207 64.1655 34.9999C64.1655 27.0792 64.1327 26.0849 63.9912 22.9751ZM58.7441 46.7869C58.7217 48.6365 58.3823 50.4685 57.7408 52.2034C57.2553 53.4612 56.5119 54.6034 55.5584 55.5565C54.6048 56.5097 53.4623 57.2526 52.2042 57.7375C50.4698 58.3805 48.6375 58.7199 46.7878 58.7408C43.7134 58.8821 42.79 58.9104 35.001 58.9104C27.212 58.9104 26.2911 58.8821 23.2176 58.7408C21.3679 58.7197 19.5357 58.3803 17.8011 57.7375C16.5343 57.2693 15.3881 56.5239 14.4463 55.5558C13.4768 54.6162 12.7311 53.4704 12.2646 52.2034C11.6216 50.4689 11.2822 48.6367 11.2613 46.7869C11.1198 43.7125 11.0917 42.7891 11.0917 35.0001C11.0917 27.2111 11.1223 26.2903 11.2613 23.2133C11.2846 21.3639 11.6239 19.5321 12.2646 17.797C12.7328 16.5302 13.4782 15.3839 14.4463 14.4422C15.3864 13.4721 16.5331 12.7264 17.8011 12.2605C19.5356 11.6175 21.3679 11.2781 23.2176 11.2572C26.292 11.1157 27.2154 11.0876 35.001 11.0876C42.7865 11.0876 43.7108 11.1182 46.7878 11.2572C48.6372 11.2805 50.4691 11.6198 52.2042 12.2605C53.4627 12.7454 54.6055 13.4886 55.5591 14.4422C56.5127 15.3958 57.2559 16.5387 57.7408 17.7971C58.3838 19.5315 58.7232 21.3637 58.7441 23.2133C58.8856 26.2904 58.9137 27.2113 58.9137 35.0002C58.9137 42.789 58.8856 43.7099 58.7442 46.7869H58.7441Z" fill="#95EFCE"/>
<path d="M50.5721 15.9307H50.5708C49.6428 15.9308 48.7528 16.2996 48.0967 16.956C47.4405 17.6123 47.072 18.5023 47.0721 19.4304C47.0721 20.3584 47.4409 21.2484 48.0971 21.9046C48.7534 22.5608 49.6434 22.9294 50.5714 22.9294C51.4995 22.9294 52.3895 22.5608 53.0458 21.9046C53.702 21.2484 54.0707 20.3584 54.0708 19.4304C54.0709 18.5023 53.7024 17.6123 53.0462 16.956C52.3901 16.2996 51.5001 15.9308 50.5721 15.9307Z" fill="#95EFCE"/>
</svg>
