<svg width="10" height="16" viewBox="0 0 10 16" fill="none" xmlns="http://www.w3.org/2000/svg">
<path d="M8.39814 16C8.18773 16.0002 7.97935 15.9608 7.78498 15.8841C7.5906 15.8074 7.41406 15.6948 7.2655 15.5529L0.469352 9.07878C0.320555 8.93713 0.202517 8.76894 0.121984 8.58382C0.0414505 8.3987 0 8.20028 0 7.99989C0 7.79951 0.0414505 7.60109 0.121984 7.41597C0.202517 7.23085 0.320555 7.06266 0.469352 6.921L7.26545 0.446889C7.56586 0.16075 7.9733 -1.43511e-06 8.39814 0C8.82298 1.43513e-06 9.23042 0.160755 9.53083 0.446897C9.83124 0.733039 10 1.12113 10 1.52579C10 1.93046 9.83123 2.31855 9.53082 2.60469L3.86745 7.99994L9.53087 13.3951C9.75485 13.6086 9.90737 13.8804 9.96916 14.1764C10.0309 14.4723 9.99922 14.7791 9.87799 15.0579C9.75677 15.3367 9.55148 15.575 9.28809 15.7427C9.0247 15.9103 8.71504 15.9999 8.39823 15.9999L8.39814 16Z" fill="#2ea1d9"/>
</svg>
