<svg width="70" height="70" viewBox="0 0 70 70" fill="none" xmlns="http://www.w3.org/2000/svg">
<path d="M53.1496 41.6438C53.0295 41.8182 52.897 41.9838 52.7533 42.1394L52.7409 42.1529C52.0353 42.9942 51.2564 43.7712 50.4134 44.4748C44.4951 49.9452 34.7538 56.4578 33.4682 55.4531C32.3504 54.5798 35.309 50.3078 31.8958 49.5968C31.6576 49.5694 31.4201 49.5402 31.1846 49.5067L31.1802 49.5066V49.5062C21.1552 48.0821 13.5422 41.0697 13.5422 32.6333C13.5421 23.1687 23.1238 15.4963 34.9434 15.4963C46.763 15.4963 56.3447 23.1688 56.3447 32.6334C56.3175 35.9097 55.1925 39.0822 53.1496 41.6438Z" fill="#EFFFFD"/>
<path d="M52.2278 5.83325H17.772C11.1785 5.83325 5.83334 11.1785 5.83334 17.7719V52.2277C5.83334 58.8214 11.1785 64.1666 17.7722 64.1666H52.2278C58.8215 64.1666 64.1667 58.8214 64.1667 52.2277V17.7721C64.1667 11.1785 58.8215 5.83325 52.2278 5.83325ZM53.1496 41.6436C53.0294 41.818 52.897 41.9836 52.7534 42.1392L52.7409 42.1527C52.0352 42.994 51.2564 43.7711 50.4135 44.4746C44.4951 49.945 34.7538 56.4576 33.4682 55.4529C32.3504 54.5795 35.3091 50.3076 31.8958 49.5966C31.6576 49.5692 31.4201 49.54 31.1846 49.5065L31.1803 49.5064V49.506C21.1552 48.0819 13.5424 41.0695 13.5424 32.6332C13.5422 23.1686 23.1239 15.4962 34.9435 15.4962C46.763 15.4962 56.3448 23.1686 56.3448 32.6332C56.3175 35.9094 55.1926 39.0821 53.1496 41.6436Z" fill="#95EFCE"/>
<path d="M26.8426 35.7741H23.7356V28.705C23.7339 28.0893 23.2352 27.5906 22.6195 27.5889H22.5264C21.9106 27.5906 21.4119 28.0893 21.4102 28.705V36.9833C21.4119 37.5991 21.9106 38.0978 22.5264 38.0997H26.8426C27.4584 38.0978 27.9571 37.5991 27.9588 36.9833V36.8901C27.957 36.2745 27.4583 35.7759 26.8426 35.7741ZM40.1784 27.5892H40.085C39.4694 27.591 38.9708 28.0897 38.969 28.7054V33.5647L34.9348 28.1535C34.7363 27.8053 34.3665 27.59 33.9657 27.5892H33.8726C33.2568 27.5909 32.7581 28.0896 32.7562 28.7054V36.9835C32.758 37.5993 33.2568 38.0981 33.8726 38.0998H33.9657C34.5814 38.0979 35.0799 37.5991 35.0817 36.9835V32.0333L39.1451 37.5832C39.1701 37.6221 39.1974 37.6594 39.2268 37.695L39.2269 37.6952C39.3372 37.8424 39.4883 37.9538 39.6615 38.0156C39.7958 38.0712 39.9397 38.0997 40.085 38.0996H40.1781C40.36 38.0997 40.5391 38.055 40.6995 37.9693C40.8038 37.9225 40.8966 37.8534 40.9714 37.7669L40.9717 37.7664C41.1783 37.5582 41.2943 37.2768 41.2945 36.9835V28.7054C41.2927 28.0897 40.7941 27.591 40.1784 27.5892ZM29.9756 27.5889H30.0687C30.6852 27.5889 31.185 28.0887 31.185 28.7052V36.9831C31.185 37.5997 30.6852 38.0995 30.0687 38.0995H29.9756C29.3592 38.0995 28.8595 37.5998 28.8594 36.9835V28.7052C28.8593 28.0888 29.359 27.589 29.9754 27.5889C29.9755 27.5889 29.9755 27.5889 29.9756 27.5889ZM48.156 27.6088H43.8397C43.224 27.6105 42.7253 28.1092 42.7235 28.7249V37.0032C42.7253 37.6189 43.224 38.1176 43.8397 38.1194H48.156C48.7717 38.1176 49.2704 37.6189 49.2723 37.0032V36.9099C49.2704 36.2942 48.7717 35.7956 48.156 35.7939H45.0492V34.0264H48.156C48.7717 34.0248 49.2705 33.5262 49.2723 32.9105V32.8174C49.2705 32.2017 48.7717 31.703 48.156 31.7013H45.0492V29.934H48.156C48.7717 29.9323 49.2705 29.4336 49.2723 28.8179V28.7249C49.2705 28.1092 48.7717 27.6105 48.156 27.6088Z" fill="#95EFCE"/>
</svg>
