<svg width="100" height="100" viewBox="0 0 100 100" fill="none" xmlns="http://www.w3.org/2000/svg">
<g clip-path="url(#clip0_277_20)">
<path d="M90.3697 0H10.101C4.52238 0 0 4.52238 0 10.101V90.3697C0 95.9483 4.52238 100.471 10.101 100.471H90.3697C95.9483 100.471 100.471 95.9483 100.471 90.3697V10.101C100.471 4.52238 95.9483 0 90.3697 0Z" fill="#2ea1d9"/>
<path d="M50.5051 17.1717C69.697 17.1717 85.8586 29.2929 85.8586 45.4545C85.8586 50.505 83.8384 56.5656 80.8081 60.606C80.8081 60.606 79.798 60.606 79.798 61.6161C78.7879 62.6262 77.7778 63.6363 75.7576 64.6464C65.6566 73.7373 49.495 84.8485 47.4748 83.8384C45.4545 81.8182 50.5051 74.7474 45.4545 73.7373C44.4444 73.7373 44.4444 73.7373 44.4444 73.7373C27.2727 70.707 14.1414 59.5959 14.1414 45.4545C14.1414 29.2929 30.303 17.1717 50.5051 17.1717ZM29.2929 54.5454H36.3636C37.3737 54.5454 38.3838 53.5353 38.3838 52.5252C38.3838 51.5151 37.3737 50.505 36.3636 50.505H31.3131V38.3838C31.3131 37.3737 30.303 37.3737 29.2929 37.3737C28.2828 37.3737 27.2727 37.3737 27.2727 38.3838V52.5252C27.2727 53.5353 28.2828 54.5454 29.2929 54.5454ZM73.7374 45.4545C73.7374 44.4444 73.7374 43.4343 72.7273 43.4343H66.6667V41.4141H72.7273C73.7374 41.4141 73.7374 40.404 73.7374 39.3939C73.7374 38.3838 73.7374 37.3737 72.7273 37.3737H65.6566H64.6465C63.6364 37.3737 63.6364 38.3838 63.6364 39.3939V52.5252C63.6364 53.5353 63.6364 54.5454 64.6465 54.5454H65.6566H72.7273C73.7374 54.5454 73.7374 53.5353 73.7374 52.5252C73.7374 51.5151 73.7374 50.505 72.7273 50.505H66.6667V47.4747H72.7273C73.7374 47.4747 73.7374 46.4646 73.7374 45.4545ZM60.6061 53.5353C60.6061 53.5353 60.6061 53.5353 60.6061 52.5252V38.3838C60.6061 37.3737 59.596 37.3737 58.5859 37.3737C57.5758 37.3737 56.5657 37.3737 56.5657 38.3838V47.4747L50.5051 38.3838C49.495 37.3737 49.495 37.3737 48.4849 37.3737C47.4748 37.3737 46.4646 37.3737 46.4646 38.3838V52.5252C46.4646 53.5353 47.4748 54.5454 48.4849 54.5454C49.495 54.5454 50.5051 53.5353 50.5051 52.5252V44.4444L57.5758 53.5353C57.5758 54.5454 57.5758 54.5454 58.5859 54.5454C59.596 54.5454 59.596 54.5454 59.596 54.5454C59.596 54.5454 60.6061 54.5454 60.6061 53.5353ZM42.4242 54.5454C43.4343 54.5454 44.4444 53.5353 44.4444 52.5252V38.3838C44.4444 37.3737 43.4343 37.3737 42.4242 37.3737C41.4141 37.3737 40.404 37.3737 40.404 38.3838V52.5252C40.404 53.5353 41.4141 54.5454 42.4242 54.5454Z" fill="white"/>
</g>
<defs>
<clipPath id="clip0_277_20">
<rect width="100" height="100" fill="white"/>
</clipPath>
</defs>
</svg>
