<svg width="10" height="16" viewBox="0 0 10 16" fill="none" xmlns="http://www.w3.org/2000/svg">
<path d="M1.60186 16C1.28506 15.9999 0.975391 15.9104 0.712002 15.7427C0.448612 15.575 0.243327 15.3368 0.122101 15.058C0.000875758 14.7792 -0.0308481 14.4724 0.0309383 14.1764C0.0927247 13.8805 0.245248 13.6086 0.469227 13.3952L6.13255 7.99992L0.469178 2.6047C0.16877 2.31855 1.50221e-06 1.93046 0 1.5258C-1.50219e-06 1.12113 0.168764 0.733041 0.469171 0.446898C0.769577 0.160755 1.17702 1.43087e-06 1.60186 0C2.0267 -1.43085e-06 2.43414 0.16075 2.73455 0.446891L9.53065 6.92107C9.67945 7.06272 9.79748 7.23091 9.87802 7.41604C9.95855 7.60116 10 7.79958 10 7.99996C10 8.20035 9.95855 8.39877 9.87802 8.58389C9.79748 8.76901 9.67945 8.9372 9.53065 9.07886L2.73455 15.553C2.58597 15.6949 2.40942 15.8074 2.21504 15.8842C2.02065 15.9609 1.81227 16.0002 1.60186 16Z" fill="#6563FF"/>
</svg>
