<svg width="30" height="30" viewBox="0 0 30 30" fill="none" xmlns="http://www.w3.org/2000/svg">
<path d="M4.5 15C4.5 14.6022 4.34196 14.2206 4.06066 13.9393C3.77936 13.658 3.39782 13.5 3 13.5H1.5C1.10218 13.5 0.720644 13.658 0.43934 13.9393C0.158035 14.2206 0 14.6022 0 15C0 15.3978 0.158035 15.7794 0.43934 16.0607C0.720644 16.342 1.10218 16.5 1.5 16.5H3C3.39782 16.5 3.77936 16.342 4.06066 16.0607C4.34196 15.7794 4.5 15.3978 4.5 15ZM5.46 22.5L4.395 23.565C4.11562 23.846 3.95881 24.2262 3.95881 24.6225C3.95881 25.0188 4.11562 25.399 4.395 25.68C4.67604 25.9594 5.05622 26.1162 5.4525 26.1162C5.84878 26.1162 6.22896 25.9594 6.51 25.68L7.575 24.615C7.82074 24.328 7.94915 23.9589 7.93457 23.5814C7.91999 23.2039 7.76349 22.8458 7.49635 22.5787C7.2292 22.3115 6.87109 22.155 6.49358 22.1404C6.11607 22.1259 5.74695 22.2543 5.46 22.5V22.5ZM15 4.5C15.3978 4.5 15.7794 4.34196 16.0607 4.06066C16.342 3.77936 16.5 3.39782 16.5 3V1.5C16.5 1.10218 16.342 0.720644 16.0607 0.43934C15.7794 0.158035 15.3978 0 15 0C14.6022 0 14.2206 0.158035 13.9393 0.43934C13.658 0.720644 13.5 1.10218 13.5 1.5V3C13.5 3.39782 13.658 3.77936 13.9393 4.06066C14.2206 4.34196 14.6022 4.5 15 4.5ZM23.49 8.01C23.8835 8.00834 24.2606 7.85212 24.54 7.575L25.605 6.51C25.762 6.37553 25.8896 6.21005 25.9796 6.02396C26.0696 5.83786 26.1202 5.63516 26.1282 5.42858C26.1362 5.222 26.1014 5.016 26.026 4.82352C25.9505 4.63103 25.8362 4.45621 25.69 4.31002C25.5438 4.16384 25.369 4.04946 25.1765 3.97404C24.984 3.89863 24.778 3.86382 24.5714 3.8718C24.3648 3.87978 24.1621 3.93038 23.976 4.02041C23.7899 4.11045 23.6245 4.23798 23.49 4.395L22.5 5.46C22.2206 5.74104 22.0638 6.12122 22.0638 6.5175C22.0638 6.91378 22.2206 7.29396 22.5 7.575C22.7644 7.83804 23.1174 7.99313 23.49 8.01V8.01ZM5.49 7.575C5.76939 7.85212 6.14649 8.00834 6.54 8.01C6.73741 8.01114 6.9331 7.9733 7.11586 7.89866C7.29862 7.82401 7.46484 7.71402 7.605 7.575C7.88438 7.29396 8.04119 6.91378 8.04119 6.5175C8.04119 6.12122 7.88438 5.74104 7.605 5.46L6.54 4.395C6.40113 4.25416 6.23587 4.14205 6.05367 4.06507C5.87147 3.98809 5.6759 3.94776 5.47811 3.94636C5.28032 3.94497 5.08419 3.98255 4.90093 4.05695C4.71766 4.13135 4.55084 4.24113 4.41 4.38C4.26916 4.51887 4.15705 4.68413 4.08007 4.86633C4.00309 5.04853 3.96276 5.2441 3.96136 5.44189C3.95855 5.84135 4.11453 6.22556 4.395 6.51L5.49 7.575ZM28.5 13.5H27C26.6022 13.5 26.2206 13.658 25.9393 13.9393C25.658 14.2206 25.5 14.6022 25.5 15C25.5 15.3978 25.658 15.7794 25.9393 16.0607C26.2206 16.342 26.6022 16.5 27 16.5H28.5C28.8978 16.5 29.2794 16.342 29.5607 16.0607C29.842 15.7794 30 15.3978 30 15C30 14.6022 29.842 14.2206 29.5607 13.9393C29.2794 13.658 28.8978 13.5 28.5 13.5ZM24.54 22.5C24.255 22.3415 23.9261 22.2802 23.6032 22.3253C23.2802 22.3705 22.9808 22.5196 22.7502 22.7502C22.5196 22.9808 22.3705 23.2802 22.3253 23.6032C22.2802 23.9261 22.3415 24.255 22.5 24.54L23.565 25.605C23.846 25.8844 24.2262 26.0412 24.6225 26.0412C25.0188 26.0412 25.399 25.8844 25.68 25.605C25.9594 25.324 26.1162 24.9438 26.1162 24.5475C26.1162 24.1512 25.9594 23.771 25.68 23.49L24.54 22.5ZM15 6.75C13.3683 6.75 11.7733 7.23385 10.4165 8.14038C9.05984 9.0469 8.00242 10.3354 7.37799 11.8429C6.75357 13.3504 6.59019 15.0092 6.90852 16.6095C7.22685 18.2098 8.01259 19.6798 9.16637 20.8336C10.3202 21.9874 11.7902 22.7732 13.3905 23.0915C14.9908 23.4098 16.6496 23.2464 18.1571 22.622C19.6646 21.9976 20.9531 20.9402 21.8596 19.5835C22.7661 18.2267 23.25 16.6317 23.25 15C23.246 12.8132 22.3756 10.7171 20.8293 9.17075C19.2829 7.62443 17.1868 6.75397 15 6.75ZM15 20.25C13.9616 20.25 12.9466 19.9421 12.0833 19.3652C11.2199 18.7883 10.547 17.9684 10.1496 17.0091C9.75227 16.0498 9.6483 14.9942 9.85088 13.9758C10.0534 12.9574 10.5535 12.0219 11.2877 11.2877C12.0219 10.5535 12.9574 10.0534 13.9758 9.85088C14.9942 9.6483 16.0498 9.75227 17.0091 10.1496C17.9684 10.547 18.7883 11.2199 19.3652 12.0833C19.9421 12.9466 20.25 13.9616 20.25 15C20.25 16.3924 19.6969 17.7277 18.7123 18.7123C17.7277 19.6969 16.3924 20.25 15 20.25V20.25ZM15 25.5C14.6022 25.5 14.2206 25.658 13.9393 25.9393C13.658 26.2206 13.5 26.6022 13.5 27V28.5C13.5 28.8978 13.658 29.2794 13.9393 29.5607C14.2206 29.842 14.6022 30 15 30C15.3978 30 15.7794 29.842 16.0607 29.5607C16.342 29.2794 16.5 28.8978 16.5 28.5V27C16.5 26.6022 16.342 26.2206 16.0607 25.9393C15.7794 25.658 15.3978 25.5 15 25.5Z" fill="#2EA1D9"/>
</svg>
