<svg width="102" height="102" viewBox="0 0 102 102" fill="none" xmlns="http://www.w3.org/2000/svg">
<path d="M102 22.5611C98.1631 24.2346 94.1052 25.3467 89.9512 25.8634C94.3288 23.2664 97.6018 19.1541 99.1504 14.3055C95.0513 16.7365 90.5667 18.4485 85.8904 19.3673C83.0232 16.3059 79.3015 14.1775 75.209 13.2587C71.1165 12.3399 66.8422 12.6731 62.9415 14.2151C59.0408 15.7571 55.694 18.4366 53.336 21.9054C50.9779 25.3742 49.7175 29.472 49.7186 33.6664C49.7186 35.3239 49.8589 36.9176 50.2031 38.4349C41.8843 38.027 33.7452 35.868 26.3179 32.0989C18.8907 28.3298 12.3426 23.0355 7.10175 16.5623C4.41672 21.1641 3.58663 26.6163 4.78051 31.8087C5.97438 37.0011 9.10244 41.5433 13.5277 44.5103C10.2176 44.4215 6.97727 43.5382 4.08 41.9348V42.1643C4.08555 46.9929 5.75449 51.6722 8.8059 55.4144C11.8573 59.1567 16.1048 61.7334 20.8335 62.7109C19.0446 63.1823 17.2009 63.4139 15.351 63.3994C14.0224 63.423 12.6951 63.3033 11.3921 63.0424C12.7433 67.1927 15.3477 70.822 18.847 73.4308C22.3463 76.0395 26.5682 77.4994 30.9315 77.6093C23.5297 83.398 14.401 86.5382 5.00438 86.5279C3.2895 86.5279 1.64475 86.4514 0 86.241C9.56175 92.4027 20.7039 95.6621 32.079 95.625C70.5585 95.625 91.596 63.75 91.596 36.1208C91.596 35.1964 91.5641 34.3039 91.5195 33.4178C95.6439 30.466 99.1955 26.787 102 22.5611V22.5611Z" fill="#2ea1d9"/>
</svg>
